<svg width="16" height="12" viewBox="0 0 16 12" fill="none" xmlns="http://www.w3.org/2000/svg">
<path d="M15.3956 1.91889L13.4025 0.439723C13.3413 0.394047 13.26 0.370819 13.1798 0.37562C13.0985 0.380162 13.0226 0.411694 12.9688 0.46347L5.73982 7.41174L3.16941 4.53866C3.1204 4.4839 3.04741 4.4477 2.96674 4.43836C2.88622 4.42824 2.80401 4.44666 2.73917 4.48832L0.622062 5.83889C0.486688 5.92531 0.459798 6.08803 0.562135 6.20235L5.32156 11.5221C5.37718 11.5843 5.46323 11.6221 5.55543 11.625C5.55911 11.625 5.56295 11.625 5.56664 11.625C5.65484 11.625 5.73905 11.5931 5.79759 11.5368L15.4234 2.28508C15.5356 2.1775 15.5231 2.01335 15.3956 1.91889Z" fill="#BCBCBC"/>
</svg>
