<svg width="43" height="44" viewBox="0 0 43 44" fill="none" xmlns="http://www.w3.org/2000/svg">
<path d="M10.4649 12.8389C10.172 12.546 10.2512 11.992 10.6417 11.6015C11.0322 11.211 11.5862 11.1318 11.8791 11.4247L32.0317 31.5773C32.3245 31.8701 32.2454 32.4242 31.8549 32.8147C31.4644 33.2052 30.9103 33.2844 30.6174 32.9915L10.4649 12.8389Z" fill="#FF711A"/>
<path d="M11.879 32.9912C11.5861 33.284 11.0321 33.2049 10.6415 32.8144C10.251 32.4239 10.1719 31.8698 10.4647 31.5769L30.6173 11.4244C30.9102 11.1315 31.4642 11.2107 31.8547 11.6012C32.2453 11.9917 32.3244 12.5457 32.0315 12.8386L11.879 32.9912Z" fill="#FF711A"/>
</svg>
