<svg width="231" height="172" viewBox="0 0 231 172" fill="none" xmlns="http://www.w3.org/2000/svg">
<rect width="231" height="172" fill="#E5E5E5"/>
<g clip-path="url(#clip0)">
<rect width="1920" height="1080" transform="translate(-527 -473)" fill="#F37032"/>
<path d="M145.349 142.869C148.429 138.277 150.503 133.022 151.951 126.779C153.146 120.752 153.17 114.638 152.942 108.739C152.948 107.211 152.828 105.79 152.834 104.261C152.922 100.269 151.966 96.0801 150.131 91.1196C147.315 83.733 143.057 76.7086 136.996 70.137C136.458 69.5085 136.028 69.0057 135.49 68.3772C132.567 65.217 129.555 61.6974 126 59.0779C122.786 56.6017 120.597 54.5554 118.876 52.5442C115.112 48.1446 110.209 44.7182 105.97 41.8122C101.067 38.3858 95.1138 36.292 88.579 35.5661C83.7902 35.089 78.3878 34.9186 71.7582 35.3619C67.8488 35.6565 63.9015 36.4187 60.0618 37.3067L59.7012 37.3972C56.4561 38.2122 53.3882 39.7463 50.2634 41.9818C47.3727 44.2349 44.9123 46.9908 42.8313 49.4224C38.524 54.6274 37.0064 60.2771 38.3862 66.4972C39.323 70.9197 40.8544 75.2692 42.1517 79.6012L42.6327 80.9312C43.1136 82.2612 43.8476 83.3749 44.5815 84.4886L45.0117 84.9914C45.9608 86.3566 46.8023 87.596 47.7514 88.9612C48.7004 90.3263 49.6495 91.6915 50.5985 93.0566C51.6362 94.7813 51.5604 95.7166 50.0234 97.248C49.7704 97.4642 49.5174 97.6805 49.1378 98.0049C43.2678 102.152 39.2832 107.734 35.2795 113.55C32.8887 116.899 31.4531 120.085 31.0803 123.233C29.7148 131.364 30.5128 138.952 33.2212 146.213C33.9869 148.387 35.0246 150.112 36.3153 151.621C36.638 151.998 36.9606 152.375 37.2833 152.752C43.6353 158.64 50.9169 161.774 58.7864 162.012C62.7844 162.077 66.8013 161.908 70.8562 161.271C76.8215 160.308 81.6226 157.728 85.5125 153.315C86.689 151.874 88.2071 150.576 89.4911 149.261C91.4077 147.406 93.4507 145.442 95.1711 143.101C95.696 142.434 96.4172 142.253 97.208 142.666C98.448 143.347 99.5804 143.902 100.694 144.692C105.401 147.633 109.462 149.82 113.435 151.647C123.861 156.664 138.916 152.502 145.349 142.869ZM50.8019 100.718C53.8002 98.5901 54.844 98.7862 56.9951 101.3L57.1027 101.426C59.0387 103.689 60.9558 106.185 62.7653 108.556C63.5182 109.436 64.1445 110.424 64.8974 111.304C65.4352 111.932 65.9541 112.794 66.4918 113.423L67.2258 114.537C73.3376 121.935 80.0061 129.729 88.2116 135.991C88.9835 136.637 89.6478 137.158 90.4196 137.804C91.9443 139.33 92.1216 140.049 90.7997 141.831C90.2557 142.732 89.6043 143.506 88.6998 144.497C88.1748 145.163 87.5422 145.704 86.8907 146.478C85.8597 147.577 84.8288 148.676 83.9243 149.667C79.9775 154.781 74.4552 157.542 66.6175 158.365C63.7708 158.622 60.8166 158.753 58.0078 158.542C51.7957 158.194 46.0957 155.884 40.9079 151.612C38.3773 149.423 36.4095 146.099 35.0932 142.001C33.6187 136.95 33.0614 132.203 33.529 127.886C34.3884 120.187 37.2596 113.816 42.3957 108.555L43.6797 107.24C45.2167 105.709 46.8802 104.07 48.5437 102.43C49.3028 101.781 49.9353 101.241 50.8019 100.718ZM69.971 112.626C69.003 111.494 68.1615 110.255 67.1935 109.123C65.1689 106.501 63.0178 103.987 60.9931 101.365C56.4061 95.4923 52.806 90.517 49.6362 86.0444C44.5492 79.0754 42.8529 70.9495 41.8336 64.6388C40.903 58.6876 44.0021 53.8624 47.405 49.6481C54.7357 40.5532 65.1164 38.8625 73.4034 38.3084C75.6554 38.1246 78.1225 38.1922 80.3556 38.2422C81.5259 38.3301 82.7152 38.1842 83.8855 38.272C90.2431 38.2789 96.1264 39.7792 101.877 42.9164C107.735 46.1793 112.512 49.7138 116.656 53.789C118.396 55.5664 120.155 57.1099 121.894 58.8873C125.716 62.5854 129.752 66.5349 133.555 70.4667C134.307 71.3466 135.079 71.9927 135.832 72.8726C142.07 80.1633 145.62 88.6636 148.31 96.1584C149.575 99.4293 149.759 102.972 149.728 106.263C149.785 109.914 149.805 114.032 149.641 118.96C149.553 127.305 147.22 134.305 142.837 140.445C137.151 148.135 124.487 153.3 113.719 148.14C109.405 146.169 105.217 144.09 101.212 141.202C99.4344 139.892 97.7641 138.708 95.9674 137.632C93.614 136.161 91.153 134.565 89.0715 132.644C82.106 127.064 75.9184 120.6 69.971 112.626Z" fill="white" fill-opacity="0.25"/>
<path d="M128.483 120.084C127.54 121.542 126.598 123 125.51 124.801C124.966 125.701 124.296 126.709 123.606 127.951L122.809 129.068L124.037 128.454C124.65 128.147 125.011 128.057 125.264 127.84C125.877 127.534 126.238 127.443 126.491 127.227C131.627 121.966 134.783 116.44 135.655 110.036C136.357 105.736 136.426 101.977 136.008 98.4173C135.938 97.824 135.976 97.3563 135.906 96.763C135.932 95.0005 135.957 93.2379 134.052 92.0363C133.603 91.7673 133.243 91.8579 133.116 91.9661C132.61 92.3986 132.174 93.4244 132.782 98.9985C134.029 106.855 132.524 113.8 128.483 120.084Z" fill="white" fill-opacity="0.25"/>
<path d="M123.551 87.7104C123.57 87.4766 123.481 87.117 123.5 86.8832C123.392 86.7575 123.177 86.5061 122.836 86.3628C122.836 86.3628 122.152 86.0763 121.88 86.5263C121.735 86.8683 121.482 87.0846 121.229 87.3008C120.704 87.9672 120.179 88.6335 119.869 89.5512C118.168 96.0106 113.557 100.605 108.876 104.605C106.979 106.227 105.081 107.849 103.057 109.579L98.7559 113.256L100.704 112.461C106.423 110.185 111.084 106.418 115.278 102.616C120.338 98.2908 122.324 92.6762 123.551 87.7104Z" fill="white" fill-opacity="0.25"/>
<path d="M104.919 57.7316C104.027 55.6649 102.173 55.2905 100.535 55.1675C99.9593 55.0067 99.3647 55.0797 98.9155 54.8107C95.5879 53.7375 91.7354 53.3306 87.3768 53.3562C80.8927 53.4575 74.9592 55.4822 68.9627 59.737C68.7096 59.9532 68.3301 60.2776 68.1657 60.8534C68.0203 61.1953 67.6408 61.5197 67.3688 61.9698L66.5718 63.0862L71.082 61.19C73.0303 60.3952 74.6181 59.6911 76.3323 58.8788C83.1703 55.8634 90.268 55.4553 97.967 57.7978C103.363 59.4968 104.571 59.117 104.97 58.5588C104.97 58.5588 105.115 58.2168 104.919 57.7316Z" fill="white" fill-opacity="0.25"/>
<path d="M108.666 69.7789C108.685 69.5451 108.47 69.2937 108.255 69.0423C108.147 68.9166 107.806 68.7733 107.445 68.8638C102.346 69.3044 96.4887 70.3937 91.5739 74.3769C87.1651 77.9275 82.6109 81.8201 79.5814 87.2387L78.4935 89.039L82.7948 85.3627C84.6923 83.7408 86.5899 82.1189 88.4875 80.4969C93.1683 76.4962 98.2982 72.7645 105.073 71.9793C105.902 71.9239 106.768 71.4008 107.509 70.9859C107.762 70.7696 108.122 70.6791 108.375 70.4628C108.717 70.6061 108.666 69.7789 108.666 69.7789Z" fill="white" fill-opacity="0.25"/>
<g filter="url(#filter0_d)">
<path d="M-393.663 -511.487C-542.81 -545.208 -704.64 -521.904 -843.875 -434.019C-983.356 -345.98 -1073.86 -209.67 -1107.49 -60.9224C-1141.36 87.9799 -1118.3 249.965 -1030.26 389.445C-942.225 528.925 -805.915 619.426 -657.168 653.057C-508.02 686.778 -346.19 663.474 -206.955 575.589C-67.4751 487.55 23.026 351.24 56.6568 202.492C90.3778 53.3449 67.0738 -108.485 -20.811 -247.72C-108.36 -387.51 -244.515 -477.766 -393.663 -511.487Z" fill="url(#paint0_linear)"/>
<path d="M34.7551 197.12L3.84788 149.783C20.3505 39.6132 2.81303 -76.1515 -52.8068 -180.562L-39.9954 -236.297L-95.3567 -247.973C-165.685 -343.1 -262.4 -408.888 -368.954 -441.385L-399.19 -489.831L-446.526 -458.924C-556.696 -475.426 -672.461 -457.889 -776.626 -402.424L-832.361 -415.235L-844.037 -359.874C-939.164 -289.546 -1004.95 -192.831 -1037.45 -86.277L-1085.89 -56.0409L-1054.99 -8.70437C-1071.49 101.465 -1053.95 217.23 -998.333 321.641L-1011.14 377.376L-955.783 389.052C-885.455 484.179 -788.74 549.967 -682.186 582.464L-651.95 630.91L-604.614 600.002C-494.444 616.505 -378.679 598.967 -274.269 543.348L-218.534 556.159L-206.857 500.798C-111.73 430.47 -45.9425 333.755 -13.4455 227.201L34.7551 197.12Z" fill="url(#paint1_linear)"/>
<path d="M-24.2695 183.986C4.75054 55.6309 -15.2573 -83.5986 -90.9187 -203.468L-525.293 70.7079L-24.2695 183.986Z" fill="#ED1B24"/>
<path d="M-525.293 70.708L-251.117 505.082C-131.247 429.421 -53.2895 312.34 -24.2695 183.986L-525.293 70.708Z" fill="white"/>
<path d="M-16.6437 -250.351C69.075 -114.547 96.7392 46.5874 61.3004 203.332C25.8615 360.077 -68.3408 493.238 -203.989 579.202L-204.234 579.357C-340.038 665.075 -501.172 692.74 -657.917 657.301C-814.662 621.862 -948.223 527.569 -1033.94 391.766C-1119.66 255.963 -1147.32 94.828 -1111.89 -61.9167C-1076.45 -218.661 -982.154 -352.223 -846.351 -437.941L-846.106 -438.096C-710.303 -523.815 -549.413 -551.324 -392.668 -515.885C-235.924 -480.447 -102.362 -386.154 -16.6437 -250.351ZM-209.121 572.158L-208.876 572.003C-75.0341 487.522 18.0069 355.779 52.9033 201.434C87.7998 47.088 60.4832 -111.867 -23.9977 -245.709C-108.479 -379.551 -240.221 -472.592 -394.567 -507.488C-548.912 -542.385 -707.867 -515.068 -841.709 -430.587L-841.954 -430.433C-975.796 -345.952 -1068.59 -214.364 -1103.49 -60.0181C-1138.23 94.5725 -1111.07 253.282 -1026.59 387.124C-942.107 520.966 -810.364 614.007 -656.019 648.904C-501.673 683.8 -342.963 656.638 -209.121 572.158Z" fill="url(#paint2_linear)"/>
<path d="M-16.6437 -250.351C69.075 -114.547 96.7392 46.5874 61.3004 203.332C25.8615 360.077 -68.3408 493.238 -203.989 579.202L-204.234 579.357C-340.038 665.075 -501.172 692.74 -657.917 657.301C-814.662 621.862 -948.223 527.569 -1033.94 391.766C-1119.66 255.963 -1147.32 94.828 -1111.89 -61.9167C-1076.45 -218.661 -982.154 -352.223 -846.351 -437.941L-846.106 -438.096C-710.303 -523.815 -549.413 -551.324 -392.668 -515.885C-235.924 -480.447 -102.362 -386.154 -16.6437 -250.351ZM-209.121 572.158L-208.876 572.003C-75.0341 487.522 18.0069 355.779 52.9033 201.434C87.7998 47.088 60.4832 -111.867 -23.9977 -245.709C-108.479 -379.551 -240.221 -472.592 -394.567 -507.488C-548.912 -542.385 -707.867 -515.068 -841.709 -430.587L-841.954 -430.433C-975.796 -345.952 -1068.59 -214.364 -1103.49 -60.0181C-1138.23 94.5725 -1111.07 253.282 -1026.59 387.124C-942.107 520.966 -810.364 614.007 -656.019 648.904C-501.673 683.8 -342.963 656.638 -209.121 572.158Z" fill="url(#paint3_linear)"/>
<g filter="url(#filter1_d)">
<path d="M-83.5646 -208.11C-9.14101 -90.2013 14.9558 49.5324 -15.8724 185.884C-46.6102 321.836 -128.566 438.012 -246.475 512.436C-364.383 586.86 -504.117 610.957 -640.469 580.128C-776.421 549.391 -892.442 467.68 -967.021 349.526L-967.175 349.281C-1041.44 231.617 -1065.54 91.8839 -1034.71 -44.468C-1003.98 -180.42 -922.019 -296.596 -804.111 -371.02C-686.202 -445.444 -546.468 -469.54 -410.116 -438.712C-274.164 -407.974 -158.388 -326.109 -83.8741 -208.6L-83.5646 -208.11ZM-959.267 344.975C-886.236 460.677 -772.278 541.291 -638.48 571.331C-504.527 601.617 -367.219 578.023 -251.271 504.837C-135.324 431.651 -54.7098 317.693 -24.6692 183.895C5.52615 50.3424 -18.2231 -87.211 -91.009 -203.068L-91.1638 -203.313C-164.35 -319.261 -278.307 -399.875 -412.105 -429.915C-546.058 -460.201 -683.367 -436.607 -799.314 -363.421C-915.261 -290.235 -995.875 -176.277 -1026.16 -42.3245C-1056.36 91.2284 -1032.61 228.782 -959.422 344.729L-959.267 344.975Z" fill="#E6E7E8"/>
</g>
</g>
<g filter="url(#filter2_d)">
<path d="M89.6867 117.4L16.1569 73.3749L91.0985 31.7983L89.6867 117.4Z" fill="url(#paint4_linear)"/>
<path d="M97.1127 26.6345C84.4195 38.9159 76.3085 56.1026 75.9928 75.2498C75.677 94.397 83.2168 111.842 95.4982 124.535C107.78 137.228 124.966 145.339 144.113 145.655C163.261 145.971 180.705 138.431 193.399 126.15C206.092 113.868 214.203 96.6816 214.519 77.5344C214.834 58.3872 207.295 40.9424 195.013 28.2491C182.732 15.5558 165.545 7.44487 146.398 7.12909C127.251 6.81331 109.806 14.3531 97.1127 26.6345ZM183.838 39.3897C193.335 49.2058 199.11 62.6245 198.865 77.4427C198.621 92.261 192.407 105.482 182.591 114.98C172.775 124.477 159.356 130.251 144.538 130.007C129.72 129.763 116.499 123.549 107.001 113.733C97.5036 103.917 91.7294 90.4981 91.9738 75.6799C92.2182 60.8616 98.4317 47.6406 108.248 38.143C118.064 28.6454 131.483 22.8713 146.301 23.1157C160.953 23.3573 174.174 29.5708 183.838 39.3897Z" fill="url(#paint5_linear)"/>
<circle cx="145.255" cy="76.3919" r="55.0627" transform="rotate(-89.0552 145.255 76.3919)" fill="url(#paint6_radial)"/>
</g>
</g>
<defs>
<filter id="filter0_d" x="-1405" y="-809" width="1759.41" height="1759.41" filterUnits="userSpaceOnUse" color-interpolation-filters="sRGB">
<feFlood flood-opacity="0" result="BackgroundImageFix"/>
<feColorMatrix in="SourceAlpha" type="matrix" values="0 0 0 0 0 0 0 0 0 0 0 0 0 0 0 0 0 0 127 0"/>
<feOffset/>
<feGaussianBlur stdDeviation="25"/>
<feColorMatrix type="matrix" values="0 0 0 0 0 0 0 0 0 0 0 0 0 0 0 0 0 0 0.25 0"/>
<feBlend mode="normal" in2="BackgroundImageFix" result="effect1_dropShadow"/>
<feBlend mode="normal" in="SourceGraphic" in2="effect1_dropShadow" result="shape"/>
</filter>
<filter id="filter1_d" x="-1255.84" y="-654.838" width="1461.09" height="1461.09" filterUnits="userSpaceOnUse" color-interpolation-filters="sRGB">
<feFlood flood-opacity="0" result="BackgroundImageFix"/>
<feColorMatrix in="SourceAlpha" type="matrix" values="0 0 0 0 0 0 0 0 0 0 0 0 0 0 0 0 0 0 127 0"/>
<feOffset dy="5"/>
<feGaussianBlur stdDeviation="5"/>
<feColorMatrix type="matrix" values="0 0 0 0 0 0 0 0 0 0 0 0 0 0 0 0 0 0 0.4 0"/>
<feBlend mode="normal" in2="BackgroundImageFix" result="effect1_dropShadow"/>
<feBlend mode="normal" in="SourceGraphic" in2="effect1_dropShadow" result="shape"/>
</filter>
<filter id="filter2_d" x="0.45105" y="0.986328" width="230.21" height="170.811" filterUnits="userSpaceOnUse" color-interpolation-filters="sRGB">
<feFlood flood-opacity="0" result="BackgroundImageFix"/>
<feColorMatrix in="SourceAlpha" type="matrix" values="0 0 0 0 0 0 0 0 0 0 0 0 0 0 0 0 0 0 127 0"/>
<feOffset dy="10"/>
<feGaussianBlur stdDeviation="7.5"/>
<feColorMatrix type="matrix" values="0 0 0 0 0 0 0 0 0 0 0 0 0 0 0 0 0 0 0.25 0"/>
<feBlend mode="normal" in2="BackgroundImageFix" result="effect1_dropShadow"/>
<feBlend mode="normal" in="SourceGraphic" in2="effect1_dropShadow" result="shape"/>
</filter>
<linearGradient id="paint0_linear" x1="-1079.25" y1="-195.049" x2="179.567" y2="408.988" gradientUnits="userSpaceOnUse">
<stop stop-color="#F72226"/>
<stop offset="0.0778883" stop-color="#EF1E24"/>
<stop offset="0.2419" stop-color="#E21820"/>
<stop offset="0.2635" stop-color="#E72321"/>
<stop offset="0.3174" stop-color="#F23A23"/>
<stop offset="0.3756" stop-color="#F94A25"/>
<stop offset="0.4407" stop-color="#FE5426"/>
<stop offset="0.5269" stop-color="#FF5726"/>
<stop offset="0.5376" stop-color="#FD4726"/>
<stop offset="0.554" stop-color="#FA3626"/>
<stop offset="0.5744" stop-color="#F82B26"/>
<stop offset="0.6031" stop-color="#F72426"/>
<stop offset="0.6828" stop-color="#F72226"/>
<stop offset="0.825" stop-color="#C41C22"/>
<stop offset="0.9387" stop-color="#A11820"/>
<stop offset="1" stop-color="#94171F"/>
</linearGradient>
<linearGradient id="paint1_linear" x1="-1002.23" y1="-194.406" x2="-78.1262" y2="319.245" gradientUnits="userSpaceOnUse">
<stop stop-color="#C3C1C2"/>
<stop offset="0.4731" stop-color="white"/>
<stop offset="1" stop-color="#DCDBDB"/>
</linearGradient>
<linearGradient id="paint2_linear" x1="-657.928" y1="657.362" x2="-392.677" y2="-515.835" gradientUnits="userSpaceOnUse">
<stop stop-color="#F72226"/>
<stop offset="0.2128" stop-color="#F01E24"/>
<stop offset="0.5328" stop-color="#DB141E"/>
<stop offset="0.9187" stop-color="#B90315"/>
<stop offset="0.9839" stop-color="#B30013"/>
</linearGradient>
<linearGradient id="paint3_linear" x1="-657.928" y1="657.362" x2="-392.677" y2="-515.835" gradientUnits="userSpaceOnUse">
<stop stop-color="#C5E6F7"/>
<stop offset="1" stop-color="white"/>
</linearGradient>
<linearGradient id="paint4_linear" x1="52.9933" y1="92.5307" x2="54.4062" y2="6.85641" gradientUnits="userSpaceOnUse">
<stop stop-color="#F8C448"/>
<stop offset="0.0738402" stop-color="#F8C64B"/>
<stop offset="0.1179" stop-color="#F9CD53"/>
<stop offset="0.1542" stop-color="#FAD961"/>
<stop offset="0.1861" stop-color="#FCEA75"/>
<stop offset="0.2151" stop-color="#FFFF8F"/>
<stop offset="0.3656" stop-color="#F8C448"/>
<stop offset="0.4881" stop-color="#DE9E37"/>
<stop offset="0.6476" stop-color="#C07424"/>
<stop offset="0.7917" stop-color="#AB5516"/>
<stop offset="0.9141" stop-color="#9E430E"/>
<stop offset="1" stop-color="#993C0B"/>
</linearGradient>
<linearGradient id="paint5_linear" x1="193.545" y1="126.379" x2="97.1074" y2="26.7063" gradientUnits="userSpaceOnUse">
<stop stop-color="#993C0B"/>
<stop offset="0.8495" stop-color="#FFE368"/>
<stop offset="1" stop-color="#F8C448"/>
</linearGradient>
<radialGradient id="paint6_radial" cx="0" cy="0" r="1" gradientUnits="userSpaceOnUse" gradientTransform="translate(145.255 76.3919) rotate(90) scale(55.0627)">
<stop stop-color="#FFFE8E"/>
<stop offset="1" stop-color="#CE943D"/>
</radialGradient>
<clipPath id="clip0">
<rect width="1920" height="1080" fill="white" transform="translate(-527 -473)"/>
</clipPath>
</defs>
</svg>
