<svg width="192" height="197" viewBox="0 0 192 197" fill="none" xmlns="http://www.w3.org/2000/svg">
<path d="M99.5113 141.273L4.25514 196.528L72.9282 118.084L99.5113 141.273Z" fill="#5740E4"/>
<path d="M46.3403 94.7119L72.9272 118.084L4.25408 196.528L3.89012 196.72L46.3403 94.7119Z" fill="#5A6BFF"/>
<path d="M99.1397 122.89L175.406 92.662C176.865 92.0808 178.351 92.7866 178.932 94.2461C179.513 95.7057 178.808 97.1912 177.348 97.7724L177.164 97.7761L99.1397 122.89Z" fill="#9FB603"/>
<path d="M80.6625 109.469L119.192 68.4154C120.273 67.2902 121.927 67.2568 123.053 68.3376C124.178 69.4184 124.211 71.0729 123.131 72.1982L122.95 72.3857L80.6625 109.469Z" fill="#FDA014"/>
<path d="M71.2411 98.2566L96.9228 3.75943C97.2608 2.28131 98.9005 1.5126 100.195 1.85433C101.673 2.19235 102.438 3.64824 102.1 5.12635L102.104 5.31019L71.2411 98.2566Z" fill="#6C07D1"/>
<path d="M58.1981 89.8753L54.5429 63.6495C54.3294 62.1825 55.4028 60.6896 56.8735 60.6599C58.3405 60.4464 59.6496 61.5235 59.863 62.9905C59.8667 63.1743 59.8705 63.3582 59.8742 63.542L58.1981 89.8753Z" fill="#16C1D1"/>
<path d="M108.964 135.75L146.626 142.899C148.105 143.237 149.053 144.689 148.715 146.167C148.377 147.645 146.925 148.594 145.447 148.256C145.263 148.26 145.263 148.26 145.076 148.079L108.964 135.75Z" fill="#FDC63A"/>
<path d="M158.313 65.7873L155.298 71.3654L148.875 72.0467L153.2 76.7412L151.855 83.0213L157.686 80.329L163.268 83.5269L162.403 77.1074L167.281 72.779L161.005 71.6182L158.313 65.7873Z" fill="#FDC63A"/>
<path d="M65.9522 18.361L67.8647 22.0007L65.9129 25.5344L69.9425 24.7175L72.7594 27.6033L73.233 23.7316L76.8727 21.8191L73.3427 20.0511L72.7134 16.2017L69.8276 19.0185L65.9522 18.361Z" fill="#9FB603"/>
<path d="M180.296 116.288L180.212 121.256L176.22 123.911L180.853 125.657L182.236 130.411L185.096 126.307L190.067 126.574L187.228 122.586L188.973 117.953L184.22 119.336L180.296 116.288Z" fill="#16C1D1"/>
<path d="M87.5027 74.7558L89.4115 78.2117L87.6436 81.7416L91.493 81.1123L94.3099 83.9981L94.9637 79.9388L98.4196 78.03L94.8933 76.4459L94.2602 72.4126L91.3744 75.2295L87.5027 74.7558Z" fill="#9FB603"/>
<path d="M98.925 52.4843C101.445 54.6933 105.279 54.441 107.488 51.9208C109.697 49.4006 109.445 45.5667 106.925 43.3577C104.404 41.1487 100.571 41.401 98.3615 43.9212C96.1525 46.4414 96.4048 50.2753 98.925 52.4843Z" fill="#9FB603"/>
<path d="M158.887 126.844C160.644 128.383 163.315 128.207 164.855 126.451C166.394 124.694 166.218 122.023 164.462 120.483C162.705 118.944 160.033 119.12 158.494 120.876C156.955 122.633 157.131 125.305 158.887 126.844Z" fill="#6C07D1"/>
<path d="M87.6321 121.439C89.3879 122.979 92.1143 122.742 93.7216 120.91C95.3289 119.078 95.2085 116.344 93.4527 114.804C91.6968 113.263 88.9705 113.5 87.3631 115.332C85.7558 117.164 85.8762 119.898 87.6321 121.439Z" fill="#6C07D1"/>
<path d="M59.2906 43.6912C57.6732 45.563 57.9089 48.133 59.5968 49.7542C61.4685 51.3717 64.0386 51.1359 65.656 49.2642C67.2735 47.3925 67.0378 44.8224 65.166 43.205C63.6657 41.7639 60.9081 41.8195 59.2906 43.6912Z" fill="#FDA014"/>
<path d="M109.435 150.085C107.817 151.957 108.053 154.527 109.925 156.144C111.796 157.762 114.367 157.526 115.988 155.838C117.605 153.966 117.369 151.396 115.682 149.775C113.622 147.978 110.868 148.217 109.435 150.085Z" fill="#9FB603"/>
<path d="M136.933 51.8831C138.766 53.4892 141.5 53.367 143.039 51.6103C144.578 49.8535 144.34 47.1274 142.507 45.5213C140.674 43.9153 137.94 44.0374 136.401 45.7942C134.861 47.5509 135.1 50.277 136.933 51.8831Z" fill="#16C1D1"/>
<path d="M85.5128 149.28L79.1526 153.086L77.0481 121.679L84.16 127.789L85.5128 149.28Z" fill="#00FFB2"/>
<path d="M45.6356 96.1972L46.3413 94.7117L52.7067 100.285L56.9713 165.855L50.6111 169.662L45.6356 96.1972Z" fill="#00FFB2"/>
<path d="M61.3201 107.835L68.4356 114.128L71.3363 157.657L64.7923 161.467L61.3201 107.835Z" fill="#00FFB2"/>
<path d="M20.0253 157.772L25.814 143.862L28.4307 182.431L21.8867 186.241L20.0253 157.772Z" fill="#D9D9D9"/>
<path d="M32.8307 126.985L38.6194 113.075L42.6112 174.237L36.251 178.044L32.8307 126.985Z" fill="#D9D9D9"/>
<path d="M7.22208 188.56L13.0108 174.65L14.0723 190.813L7.71206 194.619L7.22208 188.56Z" fill="#D9D9D9"/>
</svg>
